<?xml version="1.0" encoding="UTF-8"?>
<svg width="34px" height="35px" viewBox="0 0 34 35" version="1.1" xmlns="http://www.w3.org/2000/svg" xmlns:xlink="http://www.w3.org/1999/xlink">
    <!-- Generator: Sketch 46.2 (44496) - http://www.bohemiancoding.com/sketch -->
    <title>❦</title>
    <desc>Created with Sketch.</desc>
    <defs></defs>
    <g id="Page-1" stroke="none" stroke-width="1" fill="none" fill-rule="evenodd">
        <path d="M28.203125,3.25 C28.3437507,2.21874484 28.6562476,1.4531275 29.140625,0.953125 C29.6250024,0.4531225 30.2812459,0.203125 31.109375,0.203125 C31.9375041,0.203125 32.6171848,0.49609082 33.1484375,1.08203125 C33.6796902,1.66797168 33.9453125,2.42968281 33.9453125,3.3671875 C33.9453125,4.27344203 33.6796902,5.15233949 33.1484375,6.00390625 C32.6171848,6.85547301 31.8437551,7.65624625 30.828125,8.40625 C29.9374955,9.06250328 28.9804739,9.5703107 27.9570312,9.9296875 C26.9335886,10.2890643 25.9531297,10.46875 25.015625,10.46875 C24.4531222,10.46875 23.8320346,10.3828134 23.1523438,10.2109375 C22.4726529,10.0390616 21.7500038,9.7734393 20.984375,9.4140625 C20.4531223,10.6171935 19.9609398,11.7109326 19.5078125,12.6953125 C19.0546852,13.6796924 18.6171896,14.6249955 18.1953125,15.53125 L17.9140625,14.40625 C18.2265641,13.4999955 18.5507796,12.5898483 18.8867188,11.6757812 C19.2226579,10.7617142 19.5703107,9.85156703 19.9296875,8.9453125 C15.5859158,6.25779906 12.6562576,4.56250352 11.140625,3.859375 C9.62499242,3.15624648 8.40625461,2.8046875 7.484375,2.8046875 C6.28124398,2.8046875 5.23828566,3.21483965 4.35546875,4.03515625 C3.47265184,4.85547285 3.03125,5.82030695 3.03125,6.9296875 C3.03125,7.33593953 3.1367177,7.76562273 3.34765625,8.21875 C3.5585948,8.67187727 3.86718547,9.14062258 4.2734375,9.625 C4.11718672,10.218753 3.87500164,10.6679672 3.546875,10.9726562 C3.21874836,11.2773453 2.82031484,11.4296875 2.3515625,11.4296875 C1.82030984,11.4296875 1.38672043,11.2265645 1.05078125,10.8203125 C0.71484207,10.4140605 0.546875,9.88281578 0.546875,9.2265625 C0.546875,8.33593305 0.781247656,7.41406727 1.25,6.4609375 C1.71875234,5.50780773 2.39062062,4.59375438 3.265625,3.71875 C4.15625445,2.82812055 5.07812023,2.14843984 6.03125,1.6796875 C6.98437977,1.21093516 7.90624555,0.9765625 8.796875,0.9765625 C9.67187938,0.9765625 10.6171824,1.20312273 11.6328125,1.65625 C12.6484426,2.10937727 13.7656189,2.81249523 14.984375,3.765625 L14.3984375,2.125 C14.89844,1.46874672 15.4218723,0.984376563 15.96875,0.671875 C16.5156277,0.359373437 17.1328091,0.203125 17.8203125,0.203125 C18.9765683,0.203125 19.9765583,0.683588945 20.8203125,1.64453125 C21.6640667,2.60547355 22.0859375,3.77343063 22.0859375,5.1484375 C22.0859375,5.53906445 22.0429692,5.97265387 21.9570312,6.44921875 C21.8710933,6.92578363 21.7421884,7.45312211 21.5703125,8.03125 C22.460942,8.45312711 23.2656214,8.76562398 23.984375,8.96875 C24.7031286,9.17187602 25.3515596,9.2734375 25.9296875,9.2734375 C27.0546931,9.2734375 27.9921837,8.98437789 28.7421875,8.40625 C29.4921913,7.82812211 29.8671875,7.1093793 29.8671875,6.25 C29.8671875,5.71874734 29.7421887,5.22656477 29.4921875,4.7734375 C29.2421863,4.32031023 28.812503,3.81250281 28.203125,3.25 Z M18.1484375,16.9609375 C18.8984413,15.4921802 19.7773387,14.3906287 20.7851562,13.65625 C21.7929738,12.9218713 22.9296812,12.5546875 24.1953125,12.5546875 C25.8828209,12.5546875 27.273432,13.1289005 28.3671875,14.2773438 C29.460943,15.425787 30.0078125,16.8984285 30.0078125,18.6953125 C30.0078125,20.2578203 29.5468796,21.640619 28.625,22.84375 C27.7031204,24.046881 26.2265727,25.1718698 24.1953125,26.21875 C23.8671859,26.3906259 23.3750033,26.6406234 22.71875,26.96875 C19.8593607,28.375007 18.4296875,29.6796815 18.4296875,30.8828125 C18.4296875,31.6171912 18.7031223,32.2304663 19.25,32.7226562 C19.7968777,33.2148462 20.468746,33.4609375 21.265625,33.4609375 C22.3281303,33.4609375 23.1914029,33.0703164 23.8554688,32.2890625 C24.5195346,31.5078086 24.9218743,30.4140695 25.0625,29.0078125 C25.3125013,28.8203116 25.5585925,28.6757818 25.8007812,28.5742188 C26.04297,28.4726557 26.2968737,28.421875 26.5625,28.421875 C27.1406279,28.421875 27.6289043,28.6054669 28.0273438,28.9726562 C28.4257832,29.3398456 28.625,29.7812474 28.625,30.296875 C28.625,31.4687559 27.8945386,32.4843707 26.4335938,33.34375 C24.9726489,34.2031293 23.1875105,34.6328125 21.078125,34.6328125 C19.0156147,34.6328125 17.0859465,34.2656287 15.2890625,33.53125 C13.4921785,32.7968713 11.8671948,31.7187571 10.4140625,30.296875 C8.97655531,28.906243 7.87500383,27.312509 7.109375,25.515625 C6.34374617,23.718741 5.9609375,21.8281349 5.9609375,19.84375 C5.9609375,17.234362 6.57030641,15.1328205 7.7890625,13.5390625 C9.00781859,11.9453045 10.6093651,11.1484375 12.59375,11.1484375 C14.0468823,11.1484375 15.1796834,11.6328077 15.9921875,12.6015625 C16.8046916,13.5703173 17.2265623,14.9296787 17.2578125,16.6796875 L18.1484375,16.9609375 Z M20.3515625,7.4453125 C20.4296879,7.0859357 20.4921873,6.75390777 20.5390625,6.44921875 C20.5859377,6.14452973 20.609375,5.89062602 20.609375,5.6875 C20.609375,4.59374453 20.3242216,3.68750359 19.7539062,2.96875 C19.1835909,2.24999641 18.4765667,1.890625 17.6328125,1.890625 C17.1640602,1.890625 16.7812515,2.04687344 16.484375,2.359375 C16.1874985,2.67187656 16.0390625,3.0781225 16.0390625,3.578125 C16.0390625,4.23437828 16.3906215,4.87890309 17.09375,5.51171875 C17.7968785,6.14453441 18.8828052,6.78905922 20.3515625,7.4453125 Z" id="❦" fill="#000000"></path>
    </g>
</svg>