<?xml version="1.0" encoding="UTF-8"?>
<svg width="37px" height="23px" viewBox="0 0 37 23" version="1.1" xmlns="http://www.w3.org/2000/svg" xmlns:xlink="http://www.w3.org/1999/xlink">
    <!-- Generator: Sketch 46.2 (44496) - http://www.bohemiancoding.com/sketch -->
    <title>❧</title>
    <desc>Created with Sketch.</desc>
    <defs></defs>
    <g id="Page-1" stroke="none" stroke-width="1" fill="none" fill-rule="evenodd">
        <path d="M33.1640625,12.9296875 C33.3828136,12.5859358 33.6210925,12.3398445 33.8789062,12.1914062 C34.13672,12.042968 34.4453107,11.96875 34.8046875,11.96875 C35.2109395,11.96875 35.5585923,12.1132798 35.8476562,12.4023438 C36.1367202,12.6914077 36.28125,13.0390605 36.28125,13.4453125 C36.28125,13.9609401 36.0898457,14.4999972 35.7070312,15.0625 C35.3242168,15.6250028 34.7656287,16.1796848 34.03125,16.7265625 C31.3437366,18.6796973 28.9375106,20.0937456 26.8125,20.96875 C24.6874894,21.8437544 22.6484473,22.28125 20.6953125,22.28125 C18.1327997,22.28125 16.0117271,21.6640687 14.3320312,20.4296875 C12.6523354,19.1953063 11.8125,17.6562592 11.8125,15.8125 C11.8125,14.8593702 12.0859348,14.0546908 12.6328125,13.3984375 C13.1796902,12.7421842 14.007807,12.2343768 15.1171875,11.875 C14.4765593,11.0624959 13.7539103,10.4375022 12.9492188,10 C12.1445272,9.56249781 11.2500049,9.31250031 10.265625,9.25 C10.2031247,10.8125078 9.6367241,12.1992127 8.56640625,13.4101562 C7.4960884,14.6210998 5.8906357,15.6953078 3.75,16.6328125 C3.93750094,17.3046909 4.21874812,17.8085921 4.59375,18.1445312 C4.96875188,18.4804704 5.43749719,18.6484375 6,18.6484375 C6.34375172,18.6484375 6.6953107,18.5585946 7.0546875,18.3789062 C7.4140643,18.1992179 7.76562328,17.9375017 8.109375,17.59375 C8.17187531,17.8437512 8.21874984,18.0937488 8.25,18.34375 C8.28125016,18.5937512 8.296875,18.8359363 8.296875,19.0703125 C8.296875,19.976567 8.01562781,20.7070285 7.453125,21.2617188 C6.89062219,21.816409 6.14844211,22.09375 5.2265625,22.09375 C4.14843211,22.09375 3.26172223,21.742191 2.56640625,21.0390625 C1.87109027,20.335934 1.36718906,19.281257 1.0546875,17.875 L0.140625,17.4765625 C0.234375469,17.1328108 0.36328043,16.8007829 0.52734375,16.4804688 C0.69140707,16.1601546 0.89843625,15.8593764 1.1484375,15.578125 C1.63281492,13.4374893 2.48827512,11.7812559 3.71484375,10.609375 C4.94141238,9.43749414 6.64842656,8.65625195 8.8359375,8.265625 C8.27343469,7.4062457 7.16407078,6.78125195 5.5078125,6.390625 C5.17968586,6.31249961 4.92187594,6.25000023 4.734375,6.203125 C3.78124523,5.95312375 3.09765832,5.62109582 2.68359375,5.20703125 C2.26952918,4.79296668 2.0625,4.25000336 2.0625,3.578125 C2.0625,2.74999586 2.40624656,2.09375242 3.09375,1.609375 C3.78125344,1.12499758 4.71874406,0.8828125 5.90625,0.8828125 C5.64062367,1.13281375 5.45312555,1.37499883 5.34375,1.609375 C5.23437445,1.84375117 5.1796875,2.09374867 5.1796875,2.359375 C5.1796875,2.79687719 5.31249867,3.19921691 5.578125,3.56640625 C5.84375133,3.93359559 6.25780969,4.30468562 6.8203125,4.6796875 C6.89843789,4.72656273 7.03124906,4.81249938 7.21875,4.9375 C8.81250797,5.96875516 9.82031039,7.03124453 10.2421875,8.125 C11.3828182,8.15625016 12.4374952,8.3867166 13.40625,8.81640625 C14.3750048,9.2460959 15.2812458,9.89843312 16.125,10.7734375 C15.7968734,10.1015591 15.5468759,9.4804716 15.375,8.91015625 C15.2031241,8.3398409 15.1171875,7.82031484 15.1171875,7.3515625 C15.1171875,6.03905594 15.5664018,4.98437898 16.4648438,4.1875 C17.3632857,3.39062102 18.5624925,2.9921875 20.0625,2.9921875 C21.8750091,2.9921875 23.3593692,3.51952598 24.515625,4.57421875 C25.6718808,5.62891152 26.4765602,7.17967727 26.9296875,9.2265625 C27.0546881,9.78906531 27.2109366,10.5781199 27.3984375,11.59375 C28.1171911,15.2656434 29.2421798,17.1015625 30.7734375,17.1015625 C31.6484419,17.1015625 32.3242164,16.8710961 32.8007812,16.4101562 C33.2773461,15.9492164 33.515625,15.2812544 33.515625,14.40625 C33.4999999,14.1718738 33.464844,13.933595 33.4101562,13.6914063 C33.3554685,13.4492175 33.273438,13.1953138 33.1640625,12.9296875 Z M9.0703125,9.296875 C7.41405422,9.54687625 6.14453566,10.1054644 5.26171875,10.9726562 C4.37890184,11.8398481 3.79687641,13.1015542 3.515625,14.7578125 C5.34375914,14.2265598 6.71483918,13.5117232 7.62890625,12.6132812 C8.54297332,11.7148393 9.02343727,10.6093816 9.0703125,9.296875 Z" id="❧" fill="#000000"></path>
    </g>
</svg>